<svg height="480pt" viewBox="0 -10 480 480" width="480pt" xmlns="http://www.w3.org/2000/svg"><path d="m288 336c0-26.507812-21.492188-48-48-48s-48 21.492188-48 48 21.492188 48 48 48c26.5-.027344 47.972656-21.5 48-48zm-48 32c-17.671875 0-32-14.328125-32-32s14.328125-32 32-32 32 14.328125 32 32-14.328125 32-32 32zm0 0"/><path d="m361.976562 412.664062-52.480468-52.480468c1.398437-1.246094 3.039062-2.550782 4.433594-3.65625 6.269531-4.953125 14.070312-11.121094 14.070312-20.527344s-7.808594-15.574219-14.070312-20.527344c-2.828126-1.929687-5.324219-4.300781-7.394532-7.023437-.574218-3.578125-.519531-7.226563.160156-10.785157.914063-8.183593 1.953126-17.472656-4.472656-23.886718-6.421875-6.417969-15.710937-5.402344-23.886718-4.472656-3.554688.683593-7.203126.738281-10.777344.160156-2.726563-2.066406-5.101563-4.5625-7.03125-7.394532-4.953125-6.269531-11.121094-14.070312-20.527344-14.070312s-15.574219 7.808594-20.527344 14.070312c-1.929687 2.828126-4.300781 5.324219-7.023437 7.394532-3.578125.574218-7.226563.519531-10.785157-.160156-8.183593-.929688-17.480468-1.953126-23.886718 4.472656-6.410156 6.421875-5.386719 15.703125-4.472656 23.886718.679687 3.554688.734374 7.203126.160156 10.777344-2.066406 2.726563-4.5625 5.101563-7.394532 7.03125-6.269531 4.953125-14.070312 11.121094-14.070312 20.527344s7.808594 15.574219 14.070312 20.527344c1.394532 1.105468 3.035157 2.402344 4.433594 3.65625l-52.480468 52.480468c-2.085938 2.085938-2.855469 5.152344-2 7.976563.855468 2.824219 3.195312 4.949219 6.089843 5.527344l23.085938 4.632812 4.632812 23.085938c.582031 2.898437 2.707031 5.238281 5.535157 6.089843 2.832031.863282 5.910156.09375 8-2l52.480468-52.480468c1.25 1.398437 2.550782 3.039062 3.65625 4.433594 4.921875 6.269531 11.089844 14.070312 20.496094 14.070312s15.574219-7.808594 20.527344-14.070312c1.105468-1.394532 2.402344-3.035157 3.65625-4.433594l52.480468 52.480468c2.085938 2.085938 5.152344 2.855469 7.976563 2 2.824219-.855468 4.949219-3.195312 5.527344-6.089843l4.632812-23.085938 23.085938-4.632812c2.894531-.578125 5.234375-2.703125 6.089843-5.527344.855469-2.824219.085938-5.890625-2-7.976563zm-199.390624 23.441407-2.746094-13.707031c-.632813-3.164063-3.109375-5.636719-6.273438-6.269532l-13.671875-2.746094 32.800781-32.796874c-1.464843 6.351562.445313 13.011718 5.054688 17.625 4.613281 4.609374 11.269531 6.523437 17.625 5.0625zm85.414062-36.105469c-2.054688 2.601562-6.320312 8-8 8s-5.929688-5.398438-8-8c-3.375-5.148438-8-9.359375-13.441406-12.238281-3.019532-1.175781-6.246094-1.734375-9.488282-1.648438-3.070312.058594-6.136718.285157-9.183593.6875-3.554688.675781-7.203125.726563-10.773438.144531-.640625-3.585937-.609375-7.257812.085938-10.832031 1.253906-6.210937.921875-12.632812-.960938-18.679687-2.882812-5.4375-7.09375-10.058594-12.238281-13.433594-2.601562-2.054688-8-6.320312-8-8s5.398438-5.929688 8-8c5.148438-3.375 9.359375-8 12.238281-13.441406 1.882813-6.042969 2.214844-12.464844.960938-18.671875-.683594-3.554688-.730469-7.203125-.144531-10.773438 3.585937-.636719 7.257812-.605469 10.832031.085938 6.210937 1.265625 12.636719.933593 18.679687-.960938 5.4375-2.882812 10.058594-7.09375 13.433594-12.238281 2.054688-2.601562 6.320312-8 8-8s5.929688 5.398438 8 8c3.375 5.148438 8 9.359375 13.441406 12.238281 6.042969 1.886719 12.464844 2.21875 18.671875.960938 3.554688-.683594 7.203125-.730469 10.773438-.144531.640625 3.585937.609375 7.257812-.085938 10.832031-1.253906 6.210937-.921875 12.632812.960938 18.679687 2.882812 5.4375 7.09375 10.058594 12.238281 13.433594 2.601562 2.054688 8 6.320312 8 8s-5.398438 5.929688-8 8c-5.148438 3.375-9.359375 8-12.238281 13.441406-1.882813 6.042969-2.214844 12.464844-.960938 18.671875.683594 3.554688.730469 7.203125.144531 10.773438-3.585937.628906-7.257812.597656-10.832031-.085938-6.210937-1.253906-12.632812-.921875-18.679687.960938-5.4375 2.882812-10.058594 7.09375-13.433594 12.238281zm78.398438 16.160156c-3.164063.632813-5.636719 3.109375-6.269532 6.273438l-2.746094 13.671875-32.796874-32.800781c6.351562 1.460937 13.011718-.449219 17.621093-5.0625 4.609375-4.613282 6.523438-11.273438 5.058594-17.625l32.796875 32.796874zm0 0"/><path d="m440 344h-96v-16h96c13.253906 0 24-10.746094 24-24v-264c0-13.253906-10.746094-24-24-24h-400c-13.253906 0-24 10.746094-24 24v264c0 13.253906 10.746094 24 24 24h95.449219v16h-95.449219c-22.082031-.027344-39.9726562-17.917969-40-40v-264c.0273438-22.082031 17.917969-39.9726562 40-40h400c22.082031.0273438 39.972656 17.917969 40 40v264c-.027344 22.082031-17.917969 39.972656-40 40zm0 0"/><path d="m48 80h-16v-40c0-4.417969 3.582031-8 8-8h40v16h-32zm0 0"/><path d="m448 80h-16v-32h-32v-16h40c4.417969 0 8 3.582031 8 8zm0 0"/><path d="m80 312h-40c-4.417969 0-8-3.582031-8-8v-40h16v32h32zm0 0"/><path d="m440 312h-40v-16h32v-32h16v40c0 4.417969-3.582031 8-8 8zm0 0"/><path d="m336 104h-192c-4.417969 0-8-3.582031-8-8v-32c0-4.417969 3.582031-8 8-8h192c4.417969 0 8 3.582031 8 8v32c0 4.417969-3.582031 8-8 8zm-184-16h176v-16h-176zm0 0"/><path d="m128 136h224v16h-224zm0 0"/><path d="m96 168h288v16h-288zm0 0"/><path d="m160 200h160v16h-160zm0 0"/></svg>