<svg height="480pt" viewBox="-7 0 480 480" width="480pt" xmlns="http://www.w3.org/2000/svg"><path d="m462.398438 129.222656c-4.53125-5.832031-11.507813-9.234375-18.894532-9.222656h-157.238281l4.535156-18.136719v-.039062c1.773438-7.167969.15625-14.753907-4.386719-20.574219-4.542968-5.820312-11.511718-9.230469-18.894531-9.25h-203.519531c13.773438-10.332031 19.390625-28.316406 13.949219-44.648438-5.445313-16.335937-20.730469-27.351562-37.949219-27.351562s-32.503906 11.015625-37.949219 27.351562c-5.441406 16.332032.175781 34.316407 13.949219 44.648438v400c0 4.417969 3.582031 8 8 8h32c4.417969 0 8-3.582031 8-8v-192h113.742188l-4.558594 18.175781c-1.773438 7.171875-.152344 14.757813 4.394531 20.578125 4.546875 5.824219 11.515625 9.230469 18.902344 9.246094h207.023437c11.015625.003906 20.617188-7.492188 23.289063-18.175781l40-160c1.808593-7.175781.183593-14.785157-4.394531-20.601563zm-414.398438 334.777344h-16v-396.320312c.003906-2.859376-1.523438-5.503907-4-6.9375-9.40625-5.429688-13.992188-16.503907-11.183594-26.996094 2.8125-10.492188 12.320313-17.785156 23.183594-17.785156s20.371094 7.292968 23.183594 17.785156c2.808594 10.492187-1.777344 21.566406-11.183594 26.996094-2.476562 1.433593-4.003906 4.078124-4 6.9375zm16-344.488281 144 .488281c4.417969 0 8-3.582031 8-8s-3.582031-8-8-8l-144-.488281v-15.511719h203.519531c2.445313-.007812 4.753907 1.113281 6.257813 3.039062 1.542968 1.964844 2.09375 4.535157 1.496094 6.960938l-40 160c-.894532 3.546875-4.097657 6.023438-7.753907 6h-163.519531zm387.273438 26.398437-40 160c-.890626 3.566406-4.09375 6.070313-7.769532 6.066406h-207.023437c-2.445313.007813-4.753907-1.113281-6.257813-3.039062-1.542968-1.957031-2.097656-4.515625-1.503906-6.9375l5.519531-22h33.28125c11.015625.039062 20.628907-7.453125 23.28125-18.144531l23.597657-94.359375 109.601562.503906c4.417969 0 8-3.582031 8-8s-3.582031-8-8-8l-105.601562-.488281 3.867187-15.511719h161.238281c2.464844-.003906 4.792969 1.132812 6.3125 3.074219 1.519532 1.945312 2.054688 4.476562 1.457032 6.871093zm0 0"/><path d="m240 120h8c4.417969 0 8-3.582031 8-8s-3.582031-8-8-8h-8c-4.417969 0-8 3.582031-8 8s3.582031 8 8 8zm0 0"/><path d="m424 152h-8c-4.417969 0-8 3.582031-8 8s3.582031 8 8 8h8c4.417969 0 8-3.582031 8-8s-3.582031-8-8-8zm0 0"/></svg>